<?xml version="1.0" encoding="iso-8859-1"?>
<!-- Generator: Adobe Illustrator 19.0.0, SVG Export Plug-In . SVG Version: 6.00 Build 0)  -->
<svg version="1.1" id="Capa_1" xmlns="http://www.w3.org/2000/svg" xmlns:xlink="http://www.w3.org/1999/xlink" x="0px" y="0px"
	 viewBox="0 0 512 512" style="enable-background:new 0 0 512 512;" xml:space="preserve" opacity="0.5">
<path style="fill:#EFEFEF;" d="M391.539,191.809h-32.557v-78.788c0-56.792-46.201-102.982-102.982-102.982
	S153.018,56.23,153.018,113.021v78.788h-32.557c-27.487,0-49.764,22.277-49.764,49.754v210.633
	c0,27.487,22.277,49.764,49.764,49.764h271.079c27.487,0,49.764-22.277,49.764-49.764V241.564
	C441.304,214.086,419.027,191.809,391.539,191.809z M201.407,191.809v-78.788c0-30.108,24.486-54.603,54.593-54.603
	s54.593,24.496,54.593,54.603v78.788H201.407z"/>
<g>
	<path style="fill:#CCCCCC;" d="M256,299.691c15.762,0,28.531,12.77,28.531,28.531c0,15.762-12.77,28.531-28.531,28.531
		c-15.762,0-28.531-12.77-28.531-28.531C227.469,312.461,240.238,299.691,256,299.691z"/>
	<path style="fill:#CCCCCC;" d="M358.982,113.021v78.788h-48.389v-78.788c0-30.108-24.486-54.603-54.593-54.603V10.039
		C312.782,10.039,358.982,56.23,358.982,113.021z"/>
	<path style="fill:#CCCCCC;" d="M256,10.039v48.379c-30.108,0-54.593,24.496-54.593,54.603v78.788h-48.389v-78.788
		C153.018,56.23,199.218,10.039,256,10.039z"/>
</g>
<path d="M256,289.651c-21.268,0-38.571,17.303-38.571,38.572c0,17.796,12.117,32.807,28.531,37.237v55.475
	c0,5.544,4.496,10.039,10.039,10.039c5.544,0,10.039-4.496,10.039-10.039v-55.475c16.414-4.43,28.531-19.442,28.531-37.237
	C294.571,306.954,277.268,289.651,256,289.651z M256,346.714c-10.197,0-18.492-8.295-18.492-18.492s8.295-18.493,18.492-18.493
	c10.197,0,18.492,8.296,18.492,18.493S266.197,346.714,256,346.714z"/>
<path d="M391.539,181.77h-22.518v-68.749C369.022,50.701,318.32,0,256,0S142.979,50.701,142.979,113.021v68.748h-22.518
	c-32.976,0-59.804,26.824-59.804,59.795v210.633c0,32.977,26.829,59.804,59.804,59.804h271.079
	c32.976,0,59.804-26.828,59.804-59.804V241.564C451.343,208.593,424.514,181.77,391.539,181.77z M163.057,113.021
	c0-51.249,41.694-92.943,92.943-92.943s92.943,41.694,92.943,92.943v68.748h-28.311v-68.748c0-35.644-28.994-64.643-64.632-64.643
	s-64.632,28.998-64.632,64.643v68.748h-28.311V113.021z M211.446,181.77v-68.749c0-24.573,19.987-44.564,44.554-44.564
	c24.567,0,44.554,19.991,44.554,44.564v68.748h-89.108V181.77z M431.265,452.196c0,21.905-17.821,39.725-39.725,39.725H120.461
	c-21.905,0-39.725-17.821-39.725-39.725V241.564c0-21.899,17.821-39.716,39.725-39.716h32.557h48.389h109.187h48.389h32.557
	c21.905,0,39.725,17.817,39.725,39.716L431.265,452.196L431.265,452.196z"/>
<path d="M407.571,279.002c-5.544,0-10.039,4.496-10.039,10.039v88.507c0,5.544,4.496,10.039,10.039,10.039
	c5.544,0,10.039-4.496,10.039-10.039v-88.507C417.61,283.497,413.115,279.002,407.571,279.002z"/>
<path d="M407.333,265.956c12.919,0,12.942-20.078,0-20.078C394.414,245.877,394.393,265.956,407.333,265.956z"/>
<g>
</g>
<g>
</g>
<g>
</g>
<g>
</g>
<g>
</g>
<g>
</g>
<g>
</g>
<g>
</g>
<g>
</g>
<g>
</g>
<g>
</g>
<g>
</g>
<g>
</g>
<g>
</g>
<g>
</g>
</svg>
